<svg id="svg" version="1.1" xmlns="http://www.w3.org/2000/svg" xmlns:xlink="http://www.w3.org/1999/xlink" width="400" height="309.09090909090907" viewBox="0, 0, 400,309.09090909090907"><g id="svgg"><path id="path0" d="M184.045 136.792 C 184.084 191.253,184.143 208.327,184.298 209.667 C 184.409 210.629,184.578 212.242,184.673 213.250 C 184.842 215.036,185.108 216.788,185.596 219.333 C 186.217 222.575,186.353 223.231,186.427 223.350 C 186.470 223.420,186.572 223.801,186.652 224.197 C 186.836 225.100,187.586 227.917,187.820 228.583 C 187.917 228.858,188.219 229.767,188.491 230.602 C 188.996 232.150,189.144 232.543,189.690 233.790 C 189.861 234.178,190.000 234.533,190.000 234.577 C 190.000 234.799,191.913 238.783,192.483 239.750 C 192.646 240.025,193.027 240.700,193.331 241.250 C 193.635 241.800,193.928 242.287,193.983 242.333 C 194.038 242.379,194.230 242.679,194.408 243.000 C 194.587 243.321,194.793 243.658,194.866 243.750 C 194.939 243.842,195.655 244.827,196.458 245.939 C 198.586 248.888,202.277 252.902,205.083 255.320 C 206.048 256.151,210.221 259.290,210.735 259.572 C 210.927 259.676,211.511 260.041,212.034 260.381 C 212.556 260.721,213.056 261.000,213.145 261.000 C 213.233 261.000,213.331 261.067,213.361 261.149 C 213.496 261.513,219.357 264.459,222.333 265.659 C 222.838 265.862,223.380 266.097,223.539 266.181 C 223.699 266.265,223.950 266.333,224.097 266.333 C 224.245 266.333,224.564 266.435,224.808 266.560 C 226.896 267.631,235.564 269.668,240.083 270.150 C 241.000 270.247,242.425 270.408,243.250 270.507 C 245.464 270.773,252.930 271.007,255.375 270.888 L 257.500 270.783 257.500 251.100 L 257.500 231.417 255.421 231.475 C 253.275 231.536,249.526 231.287,248.500 231.015 C 248.179 230.931,247.504 230.774,247.000 230.666 C 245.199 230.284,242.448 229.207,240.917 228.286 C 240.264 227.893,238.749 226.767,238.694 226.635 C 238.664 226.561,238.576 226.500,238.500 226.500 C 238.350 226.500,236.388 224.513,235.866 223.833 C 234.429 221.960,232.747 218.835,231.782 216.250 C 231.388 215.193,230.667 212.755,230.667 212.478 C 230.667 212.340,230.563 211.894,230.436 211.488 C 229.985 210.044,229.409 205.874,229.171 202.333 C 229.064 200.729,228.998 190.416,228.999 175.125 L 229.000 150.500 242.583 150.500 L 256.167 150.500 256.167 126.417 L 256.167 102.333 242.583 102.333 L 229.000 102.333 229.000 84.000 L 229.000 65.667 206.498 65.667 L 183.995 65.667 184.045 136.792 M160.000 102.589 C 159.862 102.616,158.737 102.723,157.500 102.825 C 152.743 103.218,147.614 103.890,144.083 104.582 C 143.442 104.708,142.392 104.900,141.750 105.009 C 141.108 105.118,140.208 105.300,139.750 105.414 C 139.292 105.527,138.317 105.756,137.583 105.921 C 136.850 106.086,135.725 106.363,135.083 106.537 C 134.442 106.711,133.654 106.920,133.333 107.000 C 131.466 107.468,126.657 108.990,125.417 109.506 C 125.142 109.620,124.692 109.808,124.417 109.924 C 124.142 110.039,123.555 110.255,123.112 110.402 C 122.670 110.550,121.750 110.933,121.067 111.252 C 120.384 111.572,119.785 111.833,119.735 111.833 C 119.579 111.833,114.625 114.319,113.750 114.836 C 113.292 115.107,112.804 115.382,112.667 115.446 C 111.790 115.857,108.614 117.849,108.528 118.042 C 108.497 118.110,108.396 118.167,108.304 118.167 C 108.169 118.167,106.172 119.525,105.417 120.131 C 105.325 120.204,104.800 120.594,104.250 120.996 C 103.700 121.398,103.212 121.771,103.167 121.826 C 103.121 121.881,102.746 122.184,102.333 122.500 C 100.716 123.738,95.389 128.954,93.908 130.749 C 93.454 131.298,93.008 131.834,92.917 131.940 C 91.567 133.500,88.000 138.513,88.000 138.850 C 88.000 138.932,87.938 139.000,87.863 139.000 C 87.787 139.000,87.558 139.319,87.354 139.708 C 87.149 140.098,86.837 140.642,86.659 140.917 C 86.482 141.192,86.287 141.520,86.226 141.646 C 86.165 141.772,85.765 142.485,85.337 143.230 C 84.909 143.974,84.066 145.596,83.464 146.833 C 82.493 148.831,82.110 149.664,81.471 151.167 C 81.374 151.396,81.236 151.701,81.165 151.845 C 80.972 152.232,79.814 155.129,79.336 156.417 C 79.268 156.600,79.102 157.012,78.966 157.333 C 78.696 157.972,76.907 163.563,76.672 164.500 C 75.876 167.684,75.580 169.023,75.345 170.500 C 75.251 171.096,75.063 172.258,74.929 173.083 C 73.874 179.581,73.833 181.606,73.833 228.210 L 73.833 270.500 97.667 270.500 L 121.500 270.500 121.505 226.375 C 121.510 181.655,121.533 179.604,122.096 175.833 C 122.414 173.698,123.228 171.040,124.178 169.032 C 124.539 168.271,124.833 167.583,124.833 167.504 C 124.833 167.426,124.891 167.336,124.962 167.306 C 125.032 167.275,125.384 166.800,125.744 166.250 C 126.103 165.700,126.458 165.225,126.532 165.194 C 126.606 165.164,126.667 165.039,126.667 164.917 C 126.667 164.794,126.723 164.669,126.792 164.639 C 126.860 164.608,127.289 164.133,127.745 163.583 C 129.189 161.840,132.905 158.281,134.184 157.417 C 134.862 156.958,135.442 156.527,135.472 156.458 C 135.503 156.390,135.595 156.333,135.678 156.333 C 135.760 156.333,136.299 156.052,136.875 155.708 C 137.451 155.365,138.221 154.943,138.586 154.772 C 138.951 154.601,139.438 154.366,139.667 154.249 C 139.896 154.132,140.421 153.920,140.833 153.777 C 141.246 153.634,141.996 153.356,142.500 153.159 C 143.004 152.962,143.679 152.741,144.000 152.667 C 144.321 152.593,145.183 152.384,145.917 152.203 C 150.203 151.141,154.498 150.665,159.792 150.666 L 163.000 150.667 163.000 126.583 L 163.000 102.500 161.625 102.519 C 160.869 102.530,160.137 102.561,160.000 102.589 M280.667 186.524 L 280.667 270.548 281.741 270.448 C 282.332 270.393,282.950 270.276,283.116 270.188 C 283.281 270.100,283.829 269.862,284.333 269.659 C 285.688 269.113,287.238 268.400,288.833 267.587 C 291.069 266.449,291.413 266.258,291.472 266.125 C 291.503 266.056,291.604 266.000,291.697 266.000 C 292.209 266.000,299.038 261.371,299.917 260.429 C 300.008 260.330,300.458 259.952,300.917 259.589 C 301.952 258.767,306.061 254.673,306.840 253.687 C 307.157 253.286,307.533 252.836,307.676 252.687 C 307.818 252.538,308.193 252.079,308.508 251.667 C 308.823 251.254,309.138 250.892,309.207 250.861 C 309.277 250.831,309.333 250.699,309.333 250.569 C 309.333 250.440,309.390 250.333,309.458 250.332 C 309.527 250.332,309.770 250.050,309.999 249.707 C 310.227 249.364,310.458 249.046,310.513 249.000 C 310.567 248.954,310.903 248.467,311.259 247.917 C 312.192 246.476,312.213 246.442,312.629 245.731 C 312.838 245.375,313.144 244.858,313.310 244.583 C 313.600 244.103,314.469 242.538,314.931 241.667 C 315.181 241.195,316.440 238.467,316.701 237.833 C 316.795 237.604,316.939 237.286,317.020 237.127 C 317.186 236.801,317.534 235.856,317.990 234.500 C 318.159 233.996,318.374 233.396,318.469 233.167 C 318.726 232.539,319.755 228.988,320.230 227.083 C 320.548 225.814,320.741 224.920,321.062 223.250 C 321.641 220.230,321.814 219.170,321.983 217.583 C 322.080 216.667,322.253 215.167,322.367 214.250 C 322.526 212.961,322.585 200.102,322.622 157.542 L 322.672 102.500 301.669 102.500 L 280.667 102.500 280.667 186.524 " stroke="none" fill="#044c94" fill-rule="evenodd"></path><path id="path1" d="M297.500 38.864 C 294.558 39.358,290.707 40.788,288.583 42.177 C 288.308 42.357,287.952 42.549,287.792 42.605 C 287.631 42.660,287.500 42.760,287.500 42.826 C 287.500 42.892,287.331 43.024,287.125 43.118 C 286.473 43.415,283.259 46.413,282.247 47.667 C 280.540 49.782,278.683 53.220,278.016 55.500 C 277.923 55.821,277.764 56.346,277.665 56.667 C 276.602 60.084,276.567 65.719,277.586 69.250 C 277.719 69.708,277.934 70.467,278.064 70.935 C 278.386 72.091,279.980 75.553,280.319 75.833 C 280.374 75.879,280.567 76.198,280.748 76.542 C 280.928 76.885,281.134 77.167,281.205 77.167 C 281.275 77.167,281.333 77.279,281.333 77.417 C 281.333 77.554,281.398 77.667,281.478 77.667 C 281.557 77.667,281.832 77.985,282.089 78.375 C 283.503 80.521,287.572 83.815,290.500 85.183 C 291.096 85.462,291.715 85.761,291.877 85.847 C 292.324 86.088,294.062 86.624,296.500 87.275 C 298.132 87.710,304.383 87.705,306.250 87.266 C 308.781 86.671,312.234 85.400,313.333 84.659 C 313.471 84.566,313.715 84.446,313.875 84.392 C 314.035 84.339,314.167 84.240,314.167 84.173 C 314.167 84.105,314.467 83.915,314.833 83.750 C 315.200 83.585,315.500 83.396,315.500 83.330 C 315.500 83.265,315.787 83.021,316.137 82.789 C 317.893 81.627,322.167 77.013,322.167 76.279 C 322.167 76.225,322.360 75.897,322.597 75.549 C 326.165 70.301,326.933 60.115,324.220 54.000 C 323.196 51.693,321.885 49.382,320.948 48.234 C 318.445 45.166,316.154 43.198,313.292 41.658 C 312.086 41.009,311.512 40.741,310.083 40.163 C 309.783 40.042,308.796 39.731,307.413 39.321 C 305.345 38.710,299.914 38.459,297.500 38.864 " stroke="none" fill="#ec8c04" fill-rule="evenodd"></path></g></svg>